<svg xmlns="http://www.w3.org/2000/svg" width="266" height="52" viewBox="0 0 133 26">
  <path
    fill-rule="evenodd"
    d="M192.076915,112.380185 L195.360435,112.380185 L200.786922,118.497893 C200.752374,117.184546 200.648626,114.454003 200.648626,113.382546 L200.648626,112.380185 L204.623471,112.380185 L204.623471,136.954764 L200.648626,136.954764 L200.648626,123.40595 L196.051708,118.3597 L196.051708,136.954764 L192.076915,136.954764 L192.076915,112.380185 Z M153.262249,131.562877 C153.262249,132.910875 153.918922,133.77494 155.266919,133.77494 C156.614865,133.77494 157.27159,132.910875 157.27159,131.562877 L157.27159,130.560568 C157.27159,129.108874 156.856806,128.486749 155.474311,127.1733 L151.637762,123.509595 C150.082424,122.023405 149.356552,120.709955 149.356552,118.152256 L149.356552,117.875768 C149.356552,113.970122 151.879703,112 155.266919,112 C158.688684,112 161.073539,113.970122 161.073539,117.875768 L161.073539,120.779103 L157.202442,120.779103 L157.202442,117.910316 C157.202442,116.56237 156.614865,115.698253 155.266919,115.698253 C153.918922,115.698253 153.331345,116.56237 153.331345,117.910316 L153.331345,118.3251 C153.331345,119.327461 153.746129,119.915038 154.817587,120.917399 L158.826928,124.753897 C160.31317,126.17099 161.246383,127.518936 161.246383,129.938443 L161.246383,131.562877 C161.246383,135.468574 158.688684,137.473193 155.266919,137.473193 C151.879703,137.473193 149.4257,135.468574 149.4257,131.562877 L149.4257,127.415292 L153.262249,127.415292 L153.262249,131.562877 Z M108.191527,117.979464 C108.191527,116.527822 107.534853,115.698253 106.08316,115.698253 C104.631518,115.698253 103.974793,116.527822 103.974793,117.979464 L103.974793,131.493781 C103.974793,132.945423 104.631518,133.77494 106.08316,133.77494 C107.534853,133.77494 108.191527,132.945423 108.191527,131.493781 L108.191527,127.138803 L112.131772,127.138803 L112.131772,131.493781 C112.131772,135.399426 109.988805,137.473193 106.08316,137.473193 C102.177515,137.473193 100,135.399426 100,131.493781 L100,118.186856 C100,114.281211 102.177515,112 106.08316,112 C109.988805,112 112.131772,114.281211 112.131772,118.186856 L112.131772,121.401228 L108.191527,121.401228 L108.191527,117.979464 Z M124.678276,117.979464 C124.678276,116.527822 123.779662,115.698253 122.327969,115.698253 L122.05148,115.698253 C120.599787,115.698253 119.701173,116.527822 119.701173,117.979464 L119.701173,131.493781 C119.701173,132.945423 120.599787,133.77494 122.05148,133.77494 L122.327969,133.77494 C123.779662,133.77494 124.678276,132.945423 124.678276,131.493781 L124.678276,117.979464 Z M132.835254,112.380185 L136.118775,112.380185 L141.54521,118.497893 C141.510662,117.184546 141.406966,114.454003 141.406966,113.382546 L141.406966,112.380185 L145.381759,112.380185 L145.381759,136.954764 L141.406966,136.954764 L141.406966,123.40595 L136.810047,118.3597 L136.810047,136.954764 L132.835254,136.954764 L132.835254,112.380185 Z M221.179317,117.115398 C221.490353,113.659034 222.803803,112 226.191019,112 C229.578235,112 230.857085,113.659034 231.168122,117.115398 L233,136.954764 L228.956059,136.954764 L227.15878,117.115398 C227.055136,115.905697 226.778596,115.698253 226.191019,115.698253 C225.568843,115.698253 225.257806,115.905697 225.154161,117.115398 L223.35678,136.954764 L219.31289,136.954764 L221.179317,117.115398 Z M218.690765,115.905697 L214.646824,115.905697 L214.646824,136.954764 L210.672031,136.954764 L210.672031,115.905697 L206.628142,115.905697 L206.628142,112.380185 L218.690765,112.380185 L218.690765,115.905697 Z M176.799919,117.115398 C177.110956,113.659034 178.424405,112 181.811621,112 C185.198838,112 186.477687,113.659034 186.788724,117.115398 L188.620602,136.954764 L184.611261,136.954764 L182.813931,117.115398 C182.710235,115.905697 182.399198,115.698253 181.811621,115.698253 C181.224045,115.698253 180.878408,115.905697 180.774661,117.115398 L178.977382,136.954764 L174.968041,136.954764 L176.799919,117.115398 Z M174.449612,115.905697 L170.405722,115.905697 L170.405722,136.954764 L166.430878,136.954764 L166.430878,115.905697 L162.421537,115.905697 L162.421537,112.380185 L174.449612,112.380185 L174.449612,115.905697 Z M115.726329,118.186856 C115.726329,114.281211 118.284079,112 122.189725,112 C126.09537,112 128.653069,114.281211 128.653069,118.186856 L128.653069,131.286389 C128.653069,135.192086 126.09537,137.473193 122.189725,137.473193 C118.284079,137.473193 115.726329,135.192086 115.726329,131.286389 L115.726329,118.186856 Z"
    transform="translate(-100 -112)"
  />
</svg>
